<svg width="180" height="180" viewBox="0 0 180 180" fill="none" xmlns="http://www.w3.org/2000/svg">
<rect width="180" height="180" rx="45" fill="#CA3433"/>
<path d="M83.1988 35.3804C87.2334 44.9481 81.1239 60.1643 66.9452 76.072C55.4179 88.9827 50 99.5879 50 109.386C50 123.565 59.1066 135.207 77.3199 143.968C82.3919 146.504 87.5792 148.81 88.9625 149.156C91.268 149.847 91.3833 149.732 90.2305 144.084C88.3862 134.401 90.5764 127.599 100.375 112.96C110.865 97.3977 114.207 88.2911 114.207 75.4957C114.207 67.5418 113.631 65.121 110.519 58.5504C106.369 49.5591 96.3401 39.0692 87.3487 34.2277L81.4697 31L83.1988 35.3804Z" fill="white"/>
<path d="M119.395 82.8732C119.395 85.4092 118.127 91.5187 116.513 96.4755C113.862 105.121 111.787 108.81 102.68 121.605C97.608 128.637 94.7262 137.859 95.8789 143.392C96.5705 147.311 99 148 100.375 146.504C100.72 145.928 104.986 142.585 109.942 139.127C121.009 131.288 124.352 127.715 127.579 120.568C130.807 113.305 130.807 102.239 127.579 92.902C125.389 86.6772 121.009 78.3775 119.856 78.3775C119.625 78.3775 119.395 80.4525 119.395 82.8732Z" fill="white"/>
</svg>
